<svg xmlns="http://www.w3.org/2000/svg" viewBox="0 0 1272.19 305.48"><defs><style>.cls-1{fill:#ed7875;}.cls-2{fill:#fff;}</style></defs><title>OptVilla_mainrogo</title><g id="レイヤー_2" data-name="レイヤー 2"><g id="レイヤー_1-2" data-name="レイヤー 1"><path class="cls-1" d="M268.35,222V83.46a14.17,14.17,0,0,0-7.09-12.28L141.26,1.9a14.18,14.18,0,0,0-14.17,0L7.09,71.18A14.17,14.17,0,0,0,0,83.46V222A14.17,14.17,0,0,0,7.09,234.3l120,69.28a14.18,14.18,0,0,0,14.17,0l120-69.28A14.17,14.17,0,0,0,268.35,222Z"/><path class="cls-2" d="M71,116,172.71,59A5.65,5.65,0,0,1,180,60.53l49.26,64.63A8.47,8.47,0,0,1,231,130.4l-.74,75.85a8.52,8.52,0,0,1-4.25,7.28L126.43,271a2.83,2.83,0,0,1-4.25-2.46V191.3a8.56,8.56,0,0,0-1.74-5.16l-50.29-66A2.84,2.84,0,0,1,71,116Z"/><path class="cls-1" d="M169.31,230.05,196,214.7a2.81,2.81,0,0,0,1.43-2.46V187.59a1.42,1.42,0,0,0-2.12-1.23l-26.74,15.35a2.86,2.86,0,0,0-1.43,2.46v24.65A1.42,1.42,0,0,0,169.31,230.05Z"/><polygon class="cls-2" points="202.77 198.82 201.81 197.06 184.61 206.45 184.61 183.37 182.61 183.37 182.61 207.54 160.87 219.41 161.83 221.16 182.61 209.82 182.61 228.5 184.61 228.5 184.61 208.73 202.77 198.82"/><path class="cls-2" d="M122.1,88V56.79a2.82,2.82,0,0,1,1.42-2.45l9.5-5.49a2.32,2.32,0,0,1,2.31,0l9.5,5.49a2.82,2.82,0,0,1,1.42,2.45V74.44Z"/><path class="cls-1" d="M339.35,152.14c0-20.89,4.67-38.83,13.77-53.34,13.51-20.15,32.93-30.48,57.76-30.48,24.58,0,44.24,10.33,57.52,30.48,9.09,14.51,14,32.45,14,53.34s-4.92,38.84-14,53.34c-13.28,20.16-32.94,30.24-57.52,30.24-24.83,0-44.25-10.08-57.76-30.24C344,191,339.35,173,339.35,152.14Zm115.77,0c-.49-21.14-4.17-37.85-10.57-49.65-8.35-14.75-19.91-21.88-35.39-21.63-15.24.25-26.79,8.11-34.41,23.11-5.66,11.79-8.61,29-8.12,50.14.25,21.14,3.94,37.85,10.33,49.65,8.11,14.5,19.91,21.88,35.39,21.63,15.24-.24,26.8-8.35,34.17-23.1C452.42,190.24,455.37,173.28,455.12,152.14Z"/><path class="cls-1" d="M538,251c0,7.62.74,13.76,1.72,17.2,1.23,2.71,4.67,6.39,9.59,9.83v4.67H503.55V278c4.91-3.44,8.11-7.12,9.34-9.83,1.23-3.44,2-9.58,2-17.2V158.53c0-8.6-1-15.48-2.71-19.91-1.47-3.44-4.42-6.63-8.6-9.83v-4.67L538,115.27v15l24.83-15c17,0,30.23,4.67,39.57,13.52,9.83,9.59,15,24.09,15,42.28a75.75,75.75,0,0,1-15,46c-10.08,12.53-22.12,18.68-36.62,18.68A54.26,54.26,0,0,1,538,228.1Zm45.48-106.44c-7.13-8.85-17.46-13.27-30.24-13.27-4.67,0-10.08,1.72-15.24,4.67v84.31a47.28,47.28,0,0,0,16.72,3.44,35.32,35.32,0,0,0,28-13.27c6.88-8.85,10.07-20.4,10.07-34.17C592.77,163.2,589.83,152.39,583.44,144.52Z"/><path class="cls-1" d="M654.23,92.9l19.91-14h3.2v39.82h37.6v11.56h-37.6v66.61c0,15.24,4.91,22.86,14.25,22.86,3.69,0,8.11-1.72,13.28-4.92,6.63-4.67,12.29-8.85,17.2-12.29l2,1.48-19.67,26.54a53.16,53.16,0,0,1-23.1,5.17c-17.7,0-27-10.82-27-32.94V130.27H634.81V118.71h19.42Z"/><path class="cls-1" d="M793.6,71.77h47.2v4.67c-6.15,3.68-7.62,11.3-4.18,22.86L872,204.75,908.89,97.08c3.68-11.55,2.45-18.68-3.69-20.64V71.77h37.61v4.67A18.41,18.41,0,0,0,933,83.81a118.58,118.58,0,0,0-8.61,17.7l-49.65,131H857L811.79,100.77a132.11,132.11,0,0,0-7.62-16.47,31.15,31.15,0,0,0-10.57-7.86Z"/><path class="cls-1" d="M992.22,200.81c0,7.62.73,13.77,1.72,17,1.22,2.95,4.67,6.64,9.58,9.83v4.92H957.8V227.6c4.92-3.19,8.11-6.88,9.34-9.83,1.23-3.19,2-9.34,2-17V158.53c0-8.6-1-15.48-2.7-19.91-1.48-3.44-4.43-6.63-8.61-9.83v-4.67l34.42-8.85Zm-27-123.39a14.69,14.69,0,0,1,4.42-10.57,14.08,14.08,0,0,1,10.57-4.18,14.46,14.46,0,0,1,10.57,4.18,15.54,15.54,0,0,1,4.18,10.57A15.09,15.09,0,0,1,990.74,88a14.69,14.69,0,0,1-10.57,4.42,15.09,15.09,0,0,1-15-15Z"/><path class="cls-1" d="M1059.57,200.81c0,7.62.73,13.77,1.72,17,1.23,2.95,4.67,6.64,9.58,9.83v4.92h-45.72V227.6c4.92-3.19,8.12-6.88,9.34-9.83,1.23-3.19,2-9.34,2-17V105.69c0-8.61-1-15.49-2.7-19.91-1.48-3.2-4.43-6.64-8.61-9.84V71.27l34.42-8.6Z"/><path class="cls-1" d="M1126.92,200.81c0,7.62.74,13.77,1.72,17,1.23,2.95,4.67,6.64,9.59,9.83v4.92h-45.72V227.6c4.91-3.19,8.11-6.88,9.34-9.83,1.23-3.19,2-9.34,2-17V105.69c0-8.61-1-15.49-2.7-19.91-1.47-3.2-4.42-6.64-8.6-9.84V71.27l34.41-8.6Z"/><path class="cls-1" d="M1217.38,234.24a69.37,69.37,0,0,1-14.51,1.48q-21.75,0-33.92-19.18c-5.65-9.34-8.85-21.38-8.85-36.13,0-18.19,4.67-33.67,14-46,9.59-12.54,22.37-19.18,38.1-19.18,9.1,0,18,3.44,25.57,9.83l6.14-6.39h28.27v4.92c-7.37,4.92-11.31,15.49-11.31,31.46v45.72c0,6.88.5,11.8,1,13.77a23.1,23.1,0,0,0,10.32,13v4.92h-29c-3.2-3.69-5.17-7.13-5.41-10.32ZM1193.29,207c7.13,8.85,17.94,13,32.44,13,.74,0,4.92-.49,12-1.22V133a31.15,31.15,0,0,0-17.21-5.65c-11.3,0-20.4,4.67-26.55,13.27-6.88,8.85-10.07,20.4-10.07,34.17C1184,188.28,1186.9,199.34,1193.29,207Z"/></g></g></svg>